<svg width="15" height="17" viewBox="0 0 15 17" fill="none" xmlns="http://www.w3.org/2000/svg">
<path d="M2.07237 16.75C1.67434 16.75 1.33373 16.6033 1.05053 16.3098C0.766842 16.0158 0.625 15.6625 0.625 15.25V4.75H2.07237V15.25H10.0329V16.75H2.07237ZM4.9671 13.75C4.56908 13.75 4.22846 13.6032 3.94526 13.3097C3.66158 13.0157 3.51974 12.6625 3.51974 12.25V1.75C3.51974 1.3375 3.66158 0.98425 3.94526 0.69025C4.22846 0.39675 4.56908 0.25 4.9671 0.25H10.0329L14.375 4.75V12.25C14.375 12.6625 14.2334 13.0157 13.9502 13.3097C13.6665 13.6032 13.3257 13.75 12.9276 13.75H4.9671ZM9.30921 5.5H12.9276L9.30921 1.75V5.5Z" fill="#FFCC18"/>
</svg>
