<svg width="17" height="17" viewBox="0 0 17 17" fill="none" xmlns="http://www.w3.org/2000/svg">
<path d="M2.08333 7.58333H5.75C6.75833 7.58333 7.58333 6.75833 7.58333 5.75V2.08333C7.58333 1.075 6.75833 0.25 5.75 0.25H2.08333C1.075 0.25 0.25 1.075 0.25 2.08333V5.75C0.25 6.75833 1.075 7.58333 2.08333 7.58333ZM2.08333 2.08333H5.75V5.75H2.08333V2.08333ZM2.08333 16.75H5.75C6.75833 16.75 7.58333 15.925 7.58333 14.9167V11.25C7.58333 10.2417 6.75833 9.41667 5.75 9.41667H2.08333C1.075 9.41667 0.25 10.2417 0.25 11.25V14.9167C0.25 15.925 1.075 16.75 2.08333 16.75ZM2.08333 11.25H5.75V14.9167H2.08333V11.25ZM9.41667 2.08333V5.75C9.41667 6.75833 10.2417 7.58333 11.25 7.58333H14.9167C15.925 7.58333 16.75 6.75833 16.75 5.75V2.08333C16.75 1.075 15.925 0.25 14.9167 0.25H11.25C10.2417 0.25 9.41667 1.075 9.41667 2.08333ZM14.9167 5.75H11.25V2.08333H14.9167V5.75ZM16.75 16.2917V15.375C16.75 15.1183 16.5483 14.9167 16.2917 14.9167H15.375C15.1183 14.9167 14.9167 15.1183 14.9167 15.375V16.2917C14.9167 16.5483 15.1183 16.75 15.375 16.75H16.2917C16.5483 16.75 16.75 16.5483 16.75 16.2917ZM9.41667 9.875V10.7917C9.41667 11.0483 9.61833 11.25 9.875 11.25H10.7917C11.0483 11.25 11.25 11.0483 11.25 10.7917V9.875C11.25 9.61833 11.0483 9.41667 10.7917 9.41667H9.875C9.61833 9.41667 9.41667 9.61833 9.41667 9.875ZM12.625 11.25H11.7083C11.4517 11.25 11.25 11.4517 11.25 11.7083V12.625C11.25 12.8817 11.4517 13.0833 11.7083 13.0833H12.625C12.8817 13.0833 13.0833 12.8817 13.0833 12.625V11.7083C13.0833 11.4517 12.8817 11.25 12.625 11.25ZM9.41667 13.5417V14.4583C9.41667 14.715 9.61833 14.9167 9.875 14.9167H10.7917C11.0483 14.9167 11.25 14.715 11.25 14.4583V13.5417C11.25 13.285 11.0483 13.0833 10.7917 13.0833H9.875C9.61833 13.0833 9.41667 13.285 9.41667 13.5417ZM11.7083 16.75H12.625C12.8817 16.75 13.0833 16.5483 13.0833 16.2917V15.375C13.0833 15.1183 12.8817 14.9167 12.625 14.9167H11.7083C11.4517 14.9167 11.25 15.1183 11.25 15.375V16.2917C11.25 16.5483 11.4517 16.75 11.7083 16.75ZM13.5417 14.9167H14.4583C14.715 14.9167 14.9167 14.715 14.9167 14.4583V13.5417C14.9167 13.285 14.715 13.0833 14.4583 13.0833H13.5417C13.285 13.0833 13.0833 13.285 13.0833 13.5417V14.4583C13.0833 14.715 13.285 14.9167 13.5417 14.9167ZM14.4583 9.41667H13.5417C13.285 9.41667 13.0833 9.61833 13.0833 9.875V10.7917C13.0833 11.0483 13.285 11.25 13.5417 11.25H14.4583C14.715 11.25 14.9167 11.0483 14.9167 10.7917V9.875C14.9167 9.61833 14.715 9.41667 14.4583 9.41667ZM15.375 13.0833H16.2917C16.5483 13.0833 16.75 12.8817 16.75 12.625V11.7083C16.75 11.4517 16.5483 11.25 16.2917 11.25H15.375C15.1183 11.25 14.9167 11.4517 14.9167 11.7083V12.625C14.9167 12.8817 15.1183 13.0833 15.375 13.0833Z" fill="#FFCC18"/>
</svg>
