<?xml version="1.0" encoding="utf-8"?><svg xmlns="http://www.w3.org/2000/svg" xmlns:xlink="http://www.w3.org/1999/xlink"><symbol viewBox="0 0 16 16" id="arrow_down" xmlns="http://www.w3.org/2000/svg"><path opacity=".5" d="M15.142 7.071l-7.071 7.071L1 7.072"/></symbol><symbol viewBox="0 0 13 13" id="wallet-arrow" xmlns="http://www.w3.org/2000/svg"><path d="M12.94 1.852a1 1 0 00-1-1h-9a1 1 0 000 2h8v8a1 1 0 102 0v-9zM2.351 12.854L12.646 2.559l-1.414-1.414L.937 11.439l1.415 1.415z"/></symbol><symbol viewBox="0 0 15 17" id="wallet-copy" xmlns="http://www.w3.org/2000/svg"><path d="M2.072 16.75c-.398 0-.738-.147-1.021-.44a1.472 1.472 0 01-.426-1.06V4.75h1.447v10.5h7.96v1.5h-7.96zm2.895-3a1.37 1.37 0 01-1.022-.44 1.472 1.472 0 01-.425-1.06V1.75c0-.413.142-.766.425-1.06A1.37 1.37 0 014.967.25h5.066l4.342 4.5v7.5c0 .412-.142.766-.425 1.06-.284.293-.624.44-1.022.44h-7.96zM9.31 5.5h3.619L9.309 1.75V5.5z"/></symbol><symbol viewBox="0 0 40 32" id="wallet-eye" xmlns="http://www.w3.org/2000/svg"><path clip-rule="evenodd" d="M25.92 15.64a6.097 6.097 0 11-12.194-.003 6.097 6.097 0 0112.195.002z"/><path clip-rule="evenodd" d="M19.816 29.72c7.344 0 14.061-5.28 17.843-14.082-3.782-8.802-10.5-14.082-17.843-14.082h.008c-7.344 0-14.062 5.28-17.844 14.082 3.782 8.802 10.5 14.083 17.844 14.083h-.008z"/></symbol><symbol viewBox="0 0 17 17" id="wallet-qr" xmlns="http://www.w3.org/2000/svg"><path d="M2.083 7.583H5.75A1.839 1.839 0 007.583 5.75V2.083A1.839 1.839 0 005.75.25H2.083A1.839 1.839 0 00.25 2.083V5.75c0 1.008.825 1.833 1.833 1.833zm0-5.5H5.75V5.75H2.083V2.083zm0 14.667H5.75a1.839 1.839 0 001.833-1.833V11.25A1.839 1.839 0 005.75 9.417H2.083A1.839 1.839 0 00.25 11.25v3.667c0 1.008.825 1.833 1.833 1.833zm0-5.5H5.75v3.667H2.083V11.25zm7.334-9.167V5.75c0 1.008.825 1.833 1.833 1.833h3.667A1.839 1.839 0 0016.75 5.75V2.083A1.839 1.839 0 0014.917.25H11.25a1.839 1.839 0 00-1.833 1.833zm5.5 3.667H11.25V2.083h3.667V5.75zm1.833 10.542v-.917a.454.454 0 00-.458-.458h-.917a.454.454 0 00-.458.458v.917c0 .256.201.458.458.458h.917a.454.454 0 00.458-.458zM9.417 9.875v.917c0 .256.201.458.458.458h.917a.454.454 0 00.458-.458v-.917a.454.454 0 00-.458-.458h-.917a.454.454 0 00-.458.458zm3.208 1.375h-.917a.454.454 0 00-.458.458v.917c0 .257.202.458.458.458h.917a.454.454 0 00.458-.458v-.917a.454.454 0 00-.458-.458zm-3.208 2.292v.916c0 .257.201.459.458.459h.917a.454.454 0 00.458-.459v-.916a.454.454 0 00-.458-.459h-.917a.454.454 0 00-.458.459zm2.291 3.208h.917a.454.454 0 00.458-.458v-.917a.454.454 0 00-.458-.458h-.917a.454.454 0 00-.458.458v.917c0 .256.202.458.458.458zm1.834-1.833h.916a.454.454 0 00.459-.459v-.916a.454.454 0 00-.459-.459h-.916a.454.454 0 00-.459.459v.916c0 .257.202.459.459.459zm.916-5.5h-.916a.454.454 0 00-.459.458v.917c0 .256.202.458.459.458h.916a.454.454 0 00.459-.458v-.917a.454.454 0 00-.459-.458zm.917 3.666h.917a.454.454 0 00.458-.458v-.917a.454.454 0 00-.458-.458h-.917a.454.454 0 00-.458.458v.917c0 .257.201.458.458.458z"/></symbol></svg>